<svg xmlns="http://www.w3.org/2000/svg" viewBox="0 0 1280 720">
  <defs>
    <linearGradient id="inkWashBg" x1="0%" y1="0%" x2="0%" y2="100%">
      <stop offset="0%" stop-color="#FAF8F2"/>
      <stop offset="100%" stop-color="#F0E8D8"/>
    </linearGradient>
    <linearGradient id="mtFar" x1="50%" y1="100%" x2="50%" y2="0%">
      <stop offset="0%" stop-color="#8B9B8A" stop-opacity="0.25"/>
      <stop offset="100%" stop-color="#8B9B8A" stop-opacity="0"/>
    </linearGradient>
    <linearGradient id="mtMid" x1="50%" y1="100%" x2="50%" y2="0%">
      <stop offset="0%" stop-color="#6B7B6A" stop-opacity="0.3"/>
      <stop offset="100%" stop-color="#6B7B6A" stop-opacity="0"/>
    </linearGradient>
    <linearGradient id="mtNear" x1="50%" y1="100%" x2="50%" y2="0%">
      <stop offset="0%" stop-color="#4A5A49" stop-opacity="0.35"/>
      <stop offset="100%" stop-color="#4A5A49" stop-opacity="0"/>
    </linearGradient>
    <radialGradient id="sunGlow" cx="50%" cy="35%" r="40%">
      <stop offset="0%" stop-color="#E8D5B0" stop-opacity="0.15"/>
      <stop offset="100%" stop-color="#E8D5B0" stop-opacity="0"/>
    </radialGradient>
  </defs>

  <rect width="1280" height="720" fill="url(#inkWashBg)"/>

  <circle cx="640" cy="252" r="280" fill="url(#sunGlow)"/>

  <g opacity="0.25">
    <path d="M0 580 Q160 380 320 480 Q480 580 640 420 Q800 260 960 400 Q1120 540 1280 360 L1280 720 L0 720 Z" fill="url(#mtFar)"/>
    <path d="M0 620 Q200 440 400 520 Q600 600 800 460 Q1000 320 1200 480 L1280 520 L1280 720 L0 720 Z" fill="url(#mtMid)"/>
  </g>

  <g opacity="0.3">
    <path d="M0 660 Q200 540 400 600 Q600 660 800 560 Q1000 460 1200 580 L1280 600 L1280 720 L0 720 Z" fill="url(#mtNear)"/>
  </g>

  <g opacity="0.08">
    <path d="M0 680 Q300 620 500 660 Q700 700 900 640 Q1100 580 1280 660" fill="none" stroke="#2C1810" stroke-width="1.5"/>
    <path d="M50 700 Q250 660 450 690 Q650 720 850 680 Q1050 640 1250 690" fill="none" stroke="#2C1810" stroke-width="0.8"/>
  </g>

  <line x1="320" y1="240" x2="960" y2="240" stroke="#2C1810" stroke-width="0.5" opacity="0.3"/>
  <line x1="320" y1="245" x2="960" y2="245" stroke="#2C1810" stroke-width="0.3" opacity="0.15"/>

  <text x="640" y="310" text-anchor="middle" font-family="KaiTi, STKaiti, SimSun, serif" font-size="76" fill="#2C1810" font-weight="bold" letter-spacing="12">紫薯书法大成</text>

  <line x1="440" y1="340" x2="840" y2="340" stroke="#2C1810" stroke-width="0.5" opacity="0.3"/>
  <line x1="440" y1="345" x2="840" y2="345" stroke="#2C1810" stroke-width="0.3" opacity="0.15"/>

  <text x="640" y="395" text-anchor="middle" font-family="SimSun, Songti SC, serif" font-size="26" fill="#6B6B6B" letter-spacing="6">贺紫薯书法艺术大成</text>

  <g transform="translate(575, 440)">
    <rect x="0" y="0" width="130" height="130" fill="none" stroke="#C41E3A" stroke-width="1.5" opacity="0.6"/>
    <text x="65" y="68" text-anchor="middle" dominant-baseline="central" font-family="KaiTi, STKaiti, SimSun, serif" font-size="38" fill="#C41E3A" opacity="0.8" letter-spacing="4">大成</text>
  </g>

  <text x="640" y="640" text-anchor="middle" font-family="SimSun, Songti SC, serif" font-size="15" fill="#9E8E7E" letter-spacing="3">甲辰年 · 六月</text>

  <g opacity="0.04">
    <path d="M50 640 Q200 630 350 645 Q500 660 650 640 Q800 620 950 645 Q1100 670 1230 640" fill="none" stroke="#2C1810" stroke-width="2"/>
  </g>
</svg>